<?xml version="1.0" encoding="UTF-8"?>
<svg width="200px" height="43px" viewBox="0 0 200 43" version="1.1" xmlns="http://www.w3.org/2000/svg" xmlns:xlink="http://www.w3.org/1999/xlink">
    <title>Logo</title>
    <g id="UI-Design" stroke="none" stroke-width="1" fill="none" fill-rule="evenodd">
        <g id="Our-Team" transform="translate(-54, -303)">
            <g id="Logo" transform="translate(54, 303)">
                <path d="M10.7596579,36.5944211 L10.7596579,26.1888604 L6.68007618,27.6088319 C5.02483607,28.2579105 4.49339173,29.0867248 4.49339173,30.918715 L4.49339173,35.766801 C4.49339173,37.3032126 5.26129894,38.072314 6.68007618,38.072314 C8.04033483,38.072314 9.28176492,37.5993883 10.7596579,36.5944211 L10.7596579,36.5944211 Z M-1.42108547e-14,30.8595993 C-1.42108547e-14,26.8988461 1.30054581,25.3027217 4.72866035,24.1198102 L10.7596579,22.0507601 L10.7596579,16.7297483 C10.7596579,14.8380453 9.81320926,13.8336752 7.92150627,13.8336752 L7.56681196,13.8336752 C5.67510897,13.8336752 4.72866035,14.8380453 4.72866035,16.7297483 L4.72866035,20.6910986 L0.354097182,20.6910986 L0.354097182,16.9070955 C0.354097182,12.1187223 2.77843877,9.69557495 7.56681196,9.69557495 L8.04033483,9.69557495 C12.828708,9.69557495 15.2518554,12.1187223 15.2518554,16.9070955 L15.2518554,41.9739515 L10.7596579,41.9739515 L10.7596579,39.964017 C9.51822779,41.1463314 7.86298768,42.3292429 5.26129894,42.3292429 C1.65524012,42.3292429 -1.42108547e-14,40.2589985 -1.42108547e-14,36.7120554 L-1.42108547e-14,30.8595993 Z" id="Fill-1" fill="#EA7924"></path>
                <path d="M30.0905575,16.7299872 C30.0905575,14.8382842 29.1441089,13.8930298 27.2524059,13.8930298 L26.4247858,13.8930298 C24.5330829,13.8930298 23.5878285,14.8382842 23.5878285,16.7299872 L23.5878285,35.293517 C23.5878285,37.18522 24.5330829,38.1316686 26.4247858,38.1316686 L27.3115216,38.1316686 C29.2038217,38.1316686 30.1490761,37.18522 30.1490761,35.293517 L30.1490761,28.967538 L34.582755,28.967538 L34.582755,35.1161699 C34.582755,39.904543 32.1596077,42.3288846 27.3712345,42.3288846 L26.3071515,42.3288846 C21.5175841,42.3288846 19.0944368,39.904543 19.0944368,35.1161699 L19.0944368,16.9073343 C19.0944368,12.1189611 21.5175841,9.69521667 26.3071515,9.69521667 L27.4297531,9.69521667 C32.1596077,9.69521667 34.5248335,12.0604425 34.5248335,16.7891029 L34.5248335,21.9918832 L30.0905575,21.9918832 L30.0905575,16.7299872 Z" id="Fill-3" fill="#EA7924"></path>
                <path d="M49.3026883,16.7299872 C49.3026883,14.8382842 48.3562397,13.8930298 46.4645367,13.8930298 L45.6369166,13.8930298 C43.7452136,13.8930298 42.7999593,14.8382842 42.7999593,16.7299872 L42.7999593,35.293517 C42.7999593,37.18522 43.7452136,38.1316686 45.6369166,38.1316686 L46.5236524,38.1316686 C48.4159525,38.1316686 49.3612069,37.18522 49.3612069,35.293517 L49.3612069,28.967538 L53.7948858,28.967538 L53.7948858,35.1161699 C53.7948858,39.904543 51.3717384,42.3288846 46.5833653,42.3288846 L45.5192823,42.3288846 C40.7297149,42.3288846 38.3065675,39.904543 38.3065675,35.1161699 L38.3065675,16.9073343 C38.3065675,12.1189611 40.7297149,9.69521667 45.5192823,9.69521667 L46.6418838,9.69521667 C51.3717384,9.69521667 53.7369643,12.0604425 53.7369643,16.7891029 L53.7369643,21.9918832 L49.3026883,21.9918832 L49.3026883,16.7299872 Z" id="Fill-5" fill="#EA7924"></path>
                <path d="M62.0118512,23.4111382 L68.3963488,23.4111382 L68.3963488,16.7298677 C68.3963488,14.8381647 67.4504973,13.8929104 65.5587943,13.8929104 L64.8488086,13.8929104 C62.9571056,13.8929104 62.0118512,14.8381647 62.0118512,16.7298677 L62.0118512,23.4111382 Z M62.0118512,27.6668728 L62.0118512,35.2933976 C62.0118512,37.1856977 62.9571056,38.1315492 64.8488086,38.1315492 L65.6764286,38.1315492 C67.5687287,38.1315492 68.5145802,37.1856977 68.5145802,35.2933976 L68.5145802,31.6276259 L72.8897405,31.6276259 L72.8897405,35.1166476 C72.8897405,39.9050207 70.4653989,42.3293623 65.6764286,42.3293623 L64.7311743,42.3293623 C59.9422039,42.3293623 57.5184595,39.9050207 57.5184595,35.1166476 L57.5184595,16.9072149 C57.5184595,12.1188417 59.9422039,9.69509725 64.7311743,9.69509725 L65.6764286,9.69509725 C70.4653989,9.69509725 72.8897405,12.1188417 72.8897405,16.9072149 L72.8897405,27.6668728 L62.0118512,27.6668728 Z" id="Fill-7" fill="#EA7924"></path>
                <polygon id="Fill-9" fill="#EA7924" points="76.967292 41.9739515 81.4606837 41.9739515 81.4606837 0 76.967292 0"></polygon>
                <path d="M102.357792,23.531579 L102.357792,27.7879107 L91.4799023,27.7879107 L91.4799023,35.4144355 C91.4799023,37.3061385 92.4257538,38.25199 94.3174568,38.25199 L95.1450768,38.25199 C97.0367798,38.25199 97.9832285,37.3061385 97.9832285,35.4144355 L97.9832285,31.7486639 L102.357792,31.7486639 L102.357792,35.2364912 C102.357792,40.0260587 99.93345,42.449206 95.1450768,42.449206 L94.1998225,42.449206 C89.410255,42.449206 86.9865106,40.0260587 86.9865106,35.2364912 L86.9865106,23.5309819 L91.4799023,23.531579 L97.8643999,23.531579 L102.357792,23.531579 Z" id="Fill-11" fill="#EA7924"></path>
                <polygon id="Fill-12" fill="#FFFFFF" points="112.273588 41.973832 106.480247 10.0495527 111.032157 10.0495527 114.815563 34.9975801 118.599567 10.0495527 123.033245 10.0495527 117.239905 41.973832"></polygon>
                <path d="M135.861297,36.5944211 L135.861297,26.1888604 L131.781715,27.6088319 C130.126475,28.2579105 129.59503,29.0867248 129.59503,30.918715 L129.59503,35.766801 C129.59503,37.3032126 130.362938,38.072314 131.781715,38.072314 C133.141974,38.072314 134.383404,37.5993883 135.861297,36.5944211 L135.861297,36.5944211 Z M125.101639,30.8595993 C125.101639,26.8988461 126.402185,25.3027217 129.830299,24.1198102 L135.861297,22.0507601 L135.861297,16.7297483 C135.861297,14.8380453 134.914848,13.8336752 133.023145,13.8336752 L132.668451,13.8336752 C130.776748,13.8336752 129.830299,14.8380453 129.830299,16.7297483 L129.830299,20.6910986 L125.455736,20.6910986 L125.455736,16.9070955 C125.455736,12.1187223 127.880077,9.69557495 132.668451,9.69557495 L133.141974,9.69557495 C137.930347,9.69557495 140.353494,12.1187223 140.353494,16.9070955 L140.353494,41.9739515 L135.861297,41.9739515 L135.861297,39.964017 C134.619867,41.1463314 132.964626,42.3292429 130.362938,42.3292429 C126.756879,42.3292429 125.101639,40.2589985 125.101639,36.7120554 L125.101639,30.8595993 Z" id="Fill-13" fill="#FFFFFF"></path>
                <polygon id="Fill-14" fill="#FFFFFF" points="149.753371 41.973832 145.261174 41.973832 145.261174 14.187653 143.132411 14.187653 143.132411 10.0495527 145.261174 10.0495527 145.261174 4.72854092 149.753371 4.72854092 149.753371 10.0495527 153.005333 10.0495527 153.005333 14.187653 149.753371 14.187653"></polygon>
                <path d="M156.07726,41.9739515 L160.570652,41.9739515 L160.570652,10.0496721 L156.07726,10.0496721 L156.07726,41.9739515 Z M155.959626,6.79890475 L160.688883,6.79890475 L160.688883,1.77287442 L155.959626,1.77287442 L155.959626,6.79890475 Z" id="Fill-15" fill="#FFFFFF"></path>
                <path d="M172.038444,13.8927312 C170.146741,13.8927312 169.201487,14.8379856 169.201487,16.7296886 L169.201487,35.2938156 C169.201487,37.1855186 170.146741,38.1319672 172.038444,38.1319672 L173.102527,38.1319672 C174.99423,38.1319672 175.940679,37.1855186 175.940679,35.2938156 L175.940679,16.7296886 C175.940679,14.8379856 174.99423,13.8927312 173.102527,13.8927312 L172.038444,13.8927312 Z M171.92081,42.3291832 C167.131243,42.3291832 164.708095,39.9048416 164.708095,35.1164684 L164.708095,16.9070358 C164.708095,12.1186626 167.131243,9.69551524 171.92081,9.69551524 L173.220759,9.69551524 C178.009729,9.69551524 180.433473,12.1186626 180.433473,16.9070358 L180.433473,35.1164684 C180.433473,39.9048416 178.009729,42.3291832 173.220759,42.3291832 L171.92081,42.3291832 Z" id="Fill-16" fill="#FFFFFF"></path>
                <path d="M184.392256,10.0497318 L188.885648,10.0497318 L188.885648,12.118782 C190.186194,10.8773519 191.899952,9.69503753 194.560757,9.69503753 C198.285047,9.69503753 200,11.8238005 200,15.4298593 L200,41.9740112 L195.506608,41.9740112 L195.506608,16.3757108 C195.506608,14.7204707 194.738104,13.9519664 193.201095,13.9519664 C191.782318,13.9519664 190.481175,14.424295 188.885648,15.5480908 L188.885648,41.9740112 L184.392256,41.9740112 L184.392256,10.0497318 Z" id="Fill-17" fill="#FFFFFF"></path>
                <polygon id="Fill-18" fill="#FFFFFF" points="102.2395 17.8662032 94.6314866 9.99724425 87.117222 17.8662032 94.6786598 16.600888"></polygon>
            </g>
        </g>
    </g>
</svg>